<svg width="117" height="32" viewBox="0 0 117 32" fill="none" xmlns="http://www.w3.org/2000/svg">
<path d="M18.097 14.7732L4.89391 24.2197C3.63194 25.1223 1.89167 24.9502 0.831093 23.8183C-0.599905 22.2903 -0.118767 19.8175 1.78156 18.9349L18.3227 11.2502C19.219 10.8334 20.274 10.9426 21.0665 11.5333L21.8687 12.1306C22.5408 12.6309 23.4391 12.7114 24.1884 12.3371L28.9012 9.98598C29.9959 9.43972 31.3272 9.919 31.8189 11.0356C32.3433 12.2264 31.6835 13.6016 30.4242 13.9435L23.8385 15.7288C23.256 15.8865 22.6325 15.7682 22.1481 15.408L21.3398 14.8058C20.3808 14.0913 19.068 14.0785 18.0968 14.774L18.097 14.7732Z" fill="#3183E8"/>
<path d="M16.286 7.92215L9.91625 7.59741C8.31933 7.51605 7.10551 9.00428 7.51319 10.5436C7.86191 11.8618 9.25891 12.6106 10.5552 12.1739L16.5955 10.1422C17.2805 9.91203 17.5817 9.1153 17.2199 8.49162C17.0254 8.15654 16.6736 7.94224 16.2853 7.92195L16.286 7.92215Z" fill="#3183E8"/>
<path d="M21.3906 16.1434L22.7469 19.063C23.374 20.413 22.9154 22.0155 21.6689 22.833L17.5868 25.5081C16.3056 26.3474 14.5941 26.0898 13.6187 24.9102C12.2442 23.2484 13.0304 20.7294 15.1079 20.1389L18.6871 19.1215C19.5051 18.8891 19.9608 18.0224 19.688 17.2204L19.5682 16.8676C19.3784 16.3103 19.722 15.714 20.3011 15.5962C20.7481 15.5053 21.1986 15.7321 21.3902 16.145L21.3906 16.1434Z" fill="#3183E8"/>
<path d="M22.4077 10.8957C23.7422 11.2523 25.1133 10.4646 25.4702 9.13635C25.8271 7.80811 25.0347 6.44232 23.7002 6.08576C22.3658 5.72921 20.9946 6.51692 20.6377 7.84515C20.2808 9.17339 21.0733 10.5392 22.4077 10.8957Z" fill="#3183E8"/>
<path d="M45.424 25H41.776V7.768H52.912V10.936H45.424V15.28H51.736V18.424H45.424V25ZM57.2886 25H53.9286V7.768H57.2886V25ZM64.7442 25.24C61.0242 25.24 58.2402 22.312 58.2402 18.592C58.2402 14.848 61.0242 11.944 64.7442 11.944C68.4642 11.944 71.2482 14.848 71.2482 18.592C71.2482 22.312 68.4642 25.24 64.7442 25.24ZM64.7442 22.288C66.4002 22.288 67.8162 20.968 67.8162 18.592C67.8162 16.216 66.4002 14.92 64.7442 14.92C63.0882 14.92 61.6722 16.216 61.6722 18.592C61.6722 20.968 63.0882 22.288 64.7442 22.288ZM82.3609 25L79.9369 16.672L77.5369 25H74.2009L70.5529 12.184H73.7929L75.9769 20.296L78.3289 12.184H81.6169L83.8969 20.296L86.0569 12.184H89.3449L85.6729 25H82.3609ZM93.7568 25H90.1088V7.768H101.245V10.936H93.7568V15.28H100.069V18.424H93.7568V25ZM106.125 9.208C106.125 10.336 105.213 11.176 103.893 11.176C102.597 11.176 101.685 10.336 101.685 9.208C101.685 8.032 102.597 7.192 103.893 7.192C105.213 7.192 106.125 8.032 106.125 9.208ZM105.597 25H102.261V12.184H105.597V25ZM115.334 21.76V24.664C114.518 25.072 113.75 25.24 112.766 25.24C110.126 25.24 108.47 23.728 108.47 20.848V15.04H105.878V12.184H108.47V8.392H111.782V12.184H115.454V15.04H111.782V20.08C111.782 21.568 112.454 22.168 113.654 22.168C114.278 22.168 114.854 22.024 115.334 21.76Z" fill="#3183E8"/>
</svg>
